<?xml version="1.0" encoding="UTF-8" standalone="no"?>
<!-- Generator: Adobe Illustrator 19.0.0, SVG Export Plug-In . SVG Version: 6.00 Build 0)  -->

<svg
   xmlns:dc="http://purl.org/dc/elements/1.1/"
   xmlns:cc="http://creativecommons.org/ns#"
   xmlns:rdf="http://www.w3.org/1999/02/22-rdf-syntax-ns#"
   xmlns:svg="http://www.w3.org/2000/svg"
   xmlns="http://www.w3.org/2000/svg"
   xmlns:sodipodi="http://sodipodi.sourceforge.net/DTD/sodipodi-0.dtd"
   xmlns:inkscape="http://www.inkscape.org/namespaces/inkscape"
   version="1.1"
   id="Layer_1"
   x="0px"
   y="0px"
   viewBox="0 0 1544 499.99999"
   xml:space="preserve"
   sodipodi:docname="banner.svg"
   width="1544"
   height="500"
   inkscape:version="0.92.4 (unknown)"
   inkscape:export-filename="/home/alberto/Web/SEO Toolkit/seo-toolkit/assets/banner-772x250.png"
   inkscape:export-xdpi="48"
   inkscape:export-ydpi="48"><metadata
   id="metadata53"><rdf:RDF><cc:Work
       rdf:about=""><dc:format>image/svg+xml</dc:format><dc:type
         rdf:resource="http://purl.org/dc/dcmitype/StillImage" /><dc:title></dc:title></cc:Work></rdf:RDF></metadata><defs
   id="defs51" /><sodipodi:namedview
   pagecolor="#bbdefb"
   bordercolor="#666666"
   borderopacity="1"
   objecttolerance="10"
   gridtolerance="10"
   guidetolerance="10"
   inkscape:pageopacity="1"
   inkscape:pageshadow="2"
   inkscape:window-width="1366"
   inkscape:window-height="703"
   id="namedview49"
   showgrid="false"
   inkscape:zoom="0.47797927"
   inkscape:cx="769.90786"
   inkscape:cy="250"
   inkscape:window-x="0"
   inkscape:window-y="0"
   inkscape:window-maximized="1"
   inkscape:current-layer="Layer_1" />
<g
   id="g16"
   transform="matrix(0.46750818,0,0,0.46750818,1195.4137,135.41375)">
	<g
   id="g14">
		<g
   id="g10">
			<path
   style="fill:#2c2f33"
   d="M 332.3,470.4 H 255 v -22.5 c 0,-5.5 -4.4,-9.9 -9.9,-9.9 -5.5,0 -9.9,4.4 -9.9,9.9 v 22.5 h -77.3 c -5.5,0 -9.9,4.4 -9.9,9.9 0,5.5 4.4,9.9 9.9,9.9 h 174.5 c 5.5,0 9.9,-4.4 9.9,-9.9 -0.1,-5.5 -4.5,-9.9 -10,-9.9 z"
   id="path2"
   inkscape:connector-curvature="0" />
			<path
   style="fill:#2c2f33"
   d="m 230,277.1 c -24.8,5.8 -44,26.3 -47.9,51.8 h -39.6 c 4.1,-15 17.8,-26 34,-26 5.5,0 9.9,-4.4 9.9,-9.9 0,-5.5 -4.4,-9.9 -9.9,-9.9 -27.2,0 -49.9,19.8 -54.3,45.8 H 44.1 c -1,-0.3 -1.9,-0.5 -3,-0.5 -5.5,0 -9.9,4.4 -9.9,9.9 v 54 c 0,12.5 10.2,22.7 22.7,22.7 h 382.4 c 12.5,0 22.7,-10.2 22.7,-22.7 V 129.1 c 0,-12.5 -10.2,-22.7 -22.7,-22.7 h -107 c -5.5,0 -9.9,4.4 -9.9,9.9 0,5.5 4.4,9.9 9.9,9.9 h 107 c 1.6,0 2.9,1.3 2.9,2.9 v 263.3 c 0,1.6 -1.3,2.9 -2.9,2.9 H 53.9 c -1.6,0 -2.9,-1.3 -2.9,-2.9 v -43.6 h 357.2 c 5.5,0 9.9,-4.4 9.9,-9.9 0,-5.5 -4.4,-9.9 -9.9,-9.9 h -42.3 c -4.4,-26 -27.1,-45.8 -54.3,-45.8 -5.5,0 -9.9,4.4 -9.9,9.9 0,5.5 4.4,9.9 9.9,9.9 16.3,0 29.9,11 34,26 h -39.4 c -4.2,-28.4 -27.6,-50.6 -56.4,-53.2 -11.9,-0.7 -19.8,1.3 -19.8,1.3 z m 14.2,18.2 c 20.5,0 37.6,14.4 41.9,33.6 h -83.8 c 4.2,-19.2 21.4,-33.6 41.9,-33.6 z"
   id="path4"
   inkscape:connector-curvature="0" />
			<path
   style="fill:#2c2f33"
   d="m 171.2,116.3 c 0,-5.5 -4.4,-9.9 -9.9,-9.9 H 53.9 c -12.5,0 -22.7,10.2 -22.7,22.7 v 172.7 c 0,5.5 4.4,9.9 9.9,9.9 5.5,0 9.9,-4.4 9.9,-9.9 V 129.1 c 0,-1.6 1.3,-2.9 2.9,-2.9 h 107.4 c 5.5,0 9.9,-4.4 9.9,-9.9 z"
   id="path6"
   inkscape:connector-curvature="0" />
			<path
   style="fill:#3c92ca"
   d="m 281.9,267 c 5.5,0 9.9,-4.4 9.9,-9.9 V 238 h 21.8 c 5.5,0 9.9,-4.4 9.9,-9.9 v -19.7 c 0,-6.7 -1.9,-13.3 -5.5,-19 l -15.3,-24.1 c -1.5,-2.3 -2.2,-5 -2.2,-7.7 V 78.5 c 0,-12 -4.3,-23.6 -12.2,-32.7 L 251.7,3.4 C 249.8,1.2 247.1,0 244.2,0 v 0 c -2.9,0 -5.6,1.3 -7.5,3.5 l -36.2,42.4 c -7.7,9.1 -12,20.6 -12,32.5 V 157 c 0,3 -0.9,5.8 -2.6,8.2 l -16.3,23.5 c -4.2,6 -6.4,13 -6.4,20.3 v 19.1 c 0,5.5 4.4,9.9 9.9,9.9 l 18,0.1 v 19.1 c 0,5.5 4.4,9.9 9.9,9.9 5.5,0 9.9,-4.4 9.9,-9.9 V 238.1 L 211,238 c 5.5,0 9.9,-4.4 9.9,-9.9 0,-5.5 -4.4,-9.9 -9.9,-9.9 H 183 V 209 c 0,-3.2 1,-6.3 2.8,-9 l 16.3,-23.5 c 4,-5.8 6.1,-12.5 6.1,-19.6 V 78.4 c 0,-7.2 2.6,-14.2 7.2,-19.6 l 29,-33.7 29,33.6 c 4.7,5.5 7.3,12.5 7.3,19.7 v 79.1 c 0,6.5 1.8,12.8 5.3,18.3 l 15.3,24.1 c 1.6,2.5 2.4,5.4 2.4,8.4 v 9.8 h -26.6 c -5.5,0 -9.9,4.4 -9.9,9.9 0,3.6 1.9,6.7 4.8,8.4 v 20.7 c 0,5.5 4.5,9.9 9.9,9.9 z"
   id="path8"
   inkscape:connector-curvature="0" />
		</g>
		<path
   style="fill:#2c2f33"
   d="m 233.3,235.1 v 42.7 c 0,5.3 4,10 9.3,10.3 5.7,0.3 10.5,-4.2 10.5,-9.9 v -43.1 c 0,-5.5 -4.4,-9.9 -9.9,-9.9 v 0 c -5.5,0 -9.9,4.4 -9.9,9.9 z"
   id="path12"
   inkscape:connector-curvature="0" />
	</g>
</g>
<g
   id="g18"
   transform="translate(0,9.7999878)">
</g>
<g
   id="g20"
   transform="translate(0,9.7999878)">
</g>
<g
   id="g22"
   transform="translate(0,9.7999878)">
</g>
<g
   id="g24"
   transform="translate(0,9.7999878)">
</g>
<g
   id="g26"
   transform="translate(0,9.7999878)">
</g>
<g
   id="g28"
   transform="translate(0,9.7999878)">
</g>
<g
   id="g30"
   transform="translate(0,9.7999878)">
</g>
<g
   id="g32"
   transform="translate(0,9.7999878)">
</g>
<g
   id="g34"
   transform="translate(0,9.7999878)">
</g>
<g
   id="g36"
   transform="translate(0,9.7999878)">
</g>
<g
   id="g38"
   transform="translate(0,9.7999878)">
</g>
<g
   id="g40"
   transform="translate(0,9.7999878)">
</g>
<g
   id="g42"
   transform="translate(0,9.7999878)">
</g>
<g
   id="g44"
   transform="translate(0,9.7999878)">
</g>
<g
   id="g46"
   transform="translate(0,9.7999878)">
</g>
</svg>